<?xml version="1.0" encoding="iso-8859-1"?>
<!-- Generator: Adobe Illustrator 18.0.0, SVG Export Plug-In . SVG Version: 6.00 Build 0)  -->
<!DOCTYPE svg PUBLIC "-//W3C//DTD SVG 1.1//EN" "http://www.w3.org/Graphics/SVG/1.1/DTD/svg11.dtd">
<svg version="1.1" xmlns="http://www.w3.org/2000/svg" xmlns:xlink="http://www.w3.org/1999/xlink" x="0px" y="0px"
	 viewBox="0 0 731.766 39.999" style="enable-background:new 0 0 731.766 39.999;" xml:space="preserve">
<g id="sprite_x5F_sandwich">
	<g id="graphics_3_">
		<g>
			<rect x="708.266" y="2.619" style="fill:#5D6102;" width="22" height="3.157"/>
			<rect x="708.266" y="8.421" style="fill:#5D6102;" width="22" height="3.158"/>
			<rect x="708.266" y="14.223" style="fill:#5D6102;" width="22" height="3.158"/>
		</g>
	</g>
	<rect id="area_25_" x="706.766" style="opacity:0;fill:#CCCCCC;" width="25" height="20"/>
</g>
<g id="sprite_x5F_close-menu">
	<g id="graphics_7_">
		<g>
			
				<rect x="661.766" y="8.421" transform="matrix(0.7071 0.7071 -0.7071 0.7071 204.1214 -472.7905)" style="fill:#FFFFFF;" width="22" height="3.158"/>
			
				<rect x="661.767" y="8.421" transform="matrix(-0.7071 0.7071 -0.7071 -0.7071 1155.5391 -458.6638)" style="fill:#FFFFFF;" width="22" height="3.157"/>
		</g>
	</g>
	<rect id="area_24_" x="662.766" style="opacity:0;fill:#CCCCCC;" width="20" height="20"/>
</g>
<g id="sprite_x5F_close-menu-hover">
	<g id="graphics_8_">
		<g>
			
				<rect x="617.766" y="8.421" transform="matrix(0.7071 0.7071 -0.7071 0.7071 191.234 -441.6776)" style="fill:#5D6102;" width="22" height="3.158"/>
			
				<rect x="617.767" y="8.421" transform="matrix(-0.7071 0.7071 -0.7071 -0.7071 1080.4275 -427.55)" style="fill:#5D6102;" width="22" height="3.157"/>
		</g>
	</g>
	<rect id="area_23_" x="618.766" style="opacity:0;fill:#CCCCCC;" width="20" height="20"/>
</g>
<g id="sprite_x5F_sandwich-hover">
	<g id="graphics_5_">
		<g>
			<g>
				<rect x="571.266" y="2.619" style="fill:#C1AF53;" width="22" height="3.157"/>
				<rect x="571.266" y="8.421" style="fill:#C1AF53;" width="22" height="3.158"/>
				<rect x="571.266" y="14.223" style="fill:#C1AF53;" width="22" height="3.158"/>
			</g>
		</g>
	</g>
	<rect id="area_22_" x="569.766" style="opacity:0;fill:#CCCCCC;" width="25" height="20"/>
</g>
<g id="sprite_x5F_more-arrow">
	<g id="graphics_4_">
		<polyline style="fill:none;stroke:#7F7F7F;stroke-width:3;stroke-miterlimit:10;" points="543.646,3.189 532.8,13.035 
			521.887,3.122 		"/>
	</g>
	<rect id="area_21_" x="519.766" style="opacity:0;fill:#CCCCCC;" width="26" height="17"/>
</g>
<g id="sprite_x5F_more-arrow-hover">
	<g id="graphics_12_">
		<polyline style="fill:none;stroke:#FFFFFF;stroke-width:3;stroke-miterlimit:10;" points="493.646,3.189 482.8,13.035 
			471.887,3.122 		"/>
	</g>
	<rect id="area_20_" x="469.766" style="opacity:0;fill:#CCCCCC;" width="26" height="17"/>
</g>
<g id="sprite_x5F_facebook">
	<g id="graphics_13_">
		<path style="fill:#FFFFFF;" d="M425.766,0.738c-10.638,0-19.262,8.625-19.262,19.262c0,10.637,8.625,19.261,19.262,19.261
			S445.028,30.637,445.028,20C445.028,9.363,436.404,0.738,425.766,0.738z M430.865,19.919h-3.335c0,5.33,0,11.894,0,11.894h-4.945
			c0,0,0-6.497,0-11.894h-2.35v-4.2h2.35v-2.721c0-1.948,0.926-4.987,4.99-4.987l3.66,0.013v4.08c0,0-2.225,0-2.659,0
			c-0.433,0-1.047,0.217-1.047,1.142v2.474h3.768L430.865,19.919z"/>
	</g>
	<rect id="area_19_" x="405.766" style="opacity:0;fill:#CCCCCC;" width="40" height="39.999"/>
</g>
<g id="sprite_x5F_twitter">
	<g id="graphics_10_">
		<path style="fill:#FFFFFF;" d="M361.766,0.738c-10.639,0-19.262,8.625-19.262,19.262c0,10.637,8.623,19.261,19.262,19.261
			c10.638,0,19.26-8.624,19.26-19.261C381.026,9.363,372.404,0.738,361.766,0.738z M371.47,16.116
			c0.009,0.209,0.014,0.418,0.014,0.628c0,6.415-4.883,13.812-13.812,13.812c-2.741,0-5.293-0.803-7.441-2.18
			c0.38,0.044,0.766,0.067,1.157,0.067c2.275,0,4.368-0.776,6.029-2.078c-2.124-0.039-3.916-1.443-4.534-3.37
			c0.296,0.057,0.601,0.087,0.914,0.087c0.442,0,0.871-0.059,1.278-0.17c-2.222-0.447-3.895-2.409-3.895-4.76
			c0-0.021,0-0.041,0-0.062c0.654,0.363,1.403,0.583,2.199,0.608c-1.304-0.872-2.159-2.355-2.159-4.04
			c0-0.891,0.239-1.725,0.656-2.441c2.396,2.936,5.971,4.87,10.006,5.071c-0.082-0.355-0.125-0.726-0.125-1.107
			c0-2.679,2.174-4.852,4.854-4.852c1.396,0,2.658,0.589,3.543,1.532c1.106-0.218,2.146-0.622,3.084-1.178
			c-0.363,1.134-1.134,2.084-2.136,2.686c0.982-0.118,1.918-0.38,2.788-0.765C373.241,14.575,372.417,15.433,371.47,16.116z"/>
	</g>
	<rect id="area_14_" x="341.766" style="opacity:0;fill:#CCCCCC;" width="40" height="39.999"/>
</g>
<g id="sprite_x5F_twitter-hover">
	<g id="graphics_11_">
		<path style="fill:#C1AF53;" d="M297.766,0.738c-10.639,0-19.262,8.625-19.262,19.262c0,10.637,8.623,19.261,19.262,19.261
			c10.638,0,19.26-8.624,19.26-19.261C317.026,9.363,308.404,0.738,297.766,0.738z M307.47,16.116
			c0.009,0.209,0.014,0.418,0.014,0.628c0,6.415-4.883,13.812-13.812,13.812c-2.741,0-5.293-0.803-7.441-2.18
			c0.38,0.044,0.766,0.067,1.157,0.067c2.275,0,4.368-0.776,6.029-2.078c-2.124-0.039-3.916-1.443-4.534-3.37
			c0.296,0.057,0.601,0.087,0.914,0.087c0.442,0,0.871-0.059,1.278-0.17c-2.222-0.447-3.895-2.409-3.895-4.76
			c0-0.021,0-0.041,0-0.062c0.654,0.363,1.403,0.583,2.199,0.608c-1.304-0.872-2.159-2.355-2.159-4.04
			c0-0.891,0.239-1.725,0.656-2.441c2.396,2.936,5.971,4.87,10.006,5.071c-0.082-0.355-0.125-0.726-0.125-1.107
			c0-2.679,2.174-4.852,4.854-4.852c1.396,0,2.658,0.589,3.543,1.532c1.106-0.218,2.146-0.622,3.084-1.178
			c-0.363,1.134-1.134,2.084-2.136,2.686c0.982-0.118,1.918-0.38,2.788-0.765C309.241,14.575,308.417,15.433,307.47,16.116z"/>
	</g>
	<rect id="area_9_" x="277.766" style="opacity:0;fill:#CCCCCC;" width="40" height="39.999"/>
</g>
<g id="sprite_x5F_facebook-hover">
	<g id="graphics_9_">
		<path style="fill:#C1AF53;" d="M233.766,0.738c-10.638,0-19.262,8.625-19.262,19.262c0,10.637,8.624,19.261,19.262,19.261
			c10.638,0,19.262-8.624,19.262-19.261C253.028,9.363,244.404,0.738,233.766,0.738z M238.865,19.919h-3.335
			c0,5.33,0,11.894,0,11.894h-4.945c0,0,0-6.497,0-11.894h-2.35v-4.2h2.35v-2.721c0-1.948,0.926-4.987,4.99-4.987l3.66,0.013v4.08
			c0,0-2.225,0-2.659,0c-0.433,0-1.047,0.217-1.047,1.142v2.474h3.768L238.865,19.919z"/>
	</g>
	<rect id="area_6_" x="213.766" style="opacity:0;fill:#CCCCCC;" width="40" height="39.999"/>
</g>
<g id="sprite_x5F_share">
	<g id="graphics_15_">
		<g>
			<circle style="fill:#C1AF53;" cx="173.266" cy="16.5" r="16"/>
			<g>
				<g>
					<path style="fill:#FFFFFF;" d="M179.266,21.167c0,1.287-1.047,2.333-2.333,2.333c-1.289,0-2.334-1.046-2.334-2.333
						c0-0.168,0.02-0.33,0.054-0.489l-5.303-2.65c-0.428,0.489-1.05,0.806-1.751,0.806c-1.288,0-2.333-1.044-2.333-2.333
						c0-1.289,1.045-2.333,2.333-2.333c0.701,0,1.323,0.316,1.75,0.806l5.304-2.651c-0.034-0.158-0.054-0.32-0.054-0.488
						c0-1.287,1.045-2.333,2.334-2.333c1.286,0,2.333,1.046,2.333,2.333c0,1.289-1.047,2.334-2.333,2.334
						c-0.701,0-1.323-0.316-1.75-0.805l-5.304,2.65c0.034,0.156,0.054,0.319,0.054,0.487c0,0.168-0.02,0.331-0.054,0.487l5.304,2.65
						c0.427-0.489,1.049-0.805,1.75-0.805C178.219,18.833,179.266,19.878,179.266,21.167z"/>
				</g>
			</g>
		</g>
	</g>
	<rect id="area_2_" x="156.766" style="opacity:0;fill:#CCCCCC;" width="33" height="33"/>
</g>
<g id="sprite_x5F_two-hearts">
	<g id="graphics">
		<path style="fill-rule:evenodd;clip-rule:evenodd;fill:#F9F9F9;" d="M113.579,7.108c-1.82-2.629-3.529-3.88-6.727-3.624
			c-3.531,0.282-6.302,2.992-5.956,6.025c0.691,6.043,9.41,12.077,14.115,15.519c0.684-0.692,1.368-1.385,2.042-2.076
			c-1.936-1.784-4.055-4.447-4.339-6.934c-0.065-0.57-0.019-1.143,0.134-1.695c0.633-2.283,2.872-3.734,5.155-3.916
			c1.915-0.153,3.28,0.359,4.442,1.438c0.95-1.216,2.175-1.933,4.005-2.111c0.124-0.647,0.151-1.374,0.03-2.269
			c-0.408-3.026-3.306-5.285-6.837-5.003C116.446,2.717,114.958,4.223,113.579,7.108L113.579,7.108z M122.638,14.245
			c0.927-1.939,1.928-2.952,4.077-3.124c2.374-0.19,4.322,1.328,4.596,3.363c0.215,1.599-0.265,2.396-0.827,3.517
			c-1.347,2.687-4.115,5.489-6.884,8.291c-1.737-1.271-3.46-2.558-4.978-3.831c-2.305-1.934-4.28-4.582-4.511-6.602
			c-0.233-2.039,1.63-3.86,4.003-4.051C120.266,11.636,121.415,12.477,122.638,14.245z"/>
	</g>
	<rect id="area_13_" x="99.7" style="opacity:0;fill:#CCCCCC;" width="33.066" height="28.79"/>
</g>
<g id="sprite_x5F_church">
	<g id="graphics_1_">
		<path style="fill-rule:evenodd;clip-rule:evenodd;fill:#FFFFFF;" d="M64.568,8.196l9.405,5.899l-2.036-0.013v10.752h1.299v2.184
			H53.879v-2.184h1.299V13.972h0.009l-1.868-0.012l9.589-5.766l0.095-2.164h-1.252V4.687h1.311l0.039-1.563l1.154,0.04l0.061,1.523
			h1.419V6.03h-1.322L64.568,8.196L64.568,8.196z M63.646,11.079c-1.084,0-1.964,0.879-1.964,1.964c0,1.084,0.879,1.964,1.964,1.964
			c1.084,0,1.964-0.879,1.964-1.964C65.609,11.958,64.73,11.079,63.646,11.079L63.646,11.079z M65.681,24.833l0.001-0.059v-5.371
			c0-1.234-1.009-2.243-2.242-2.243l0,0c-1.234,0-2.242,1.009-2.242,2.243v5.371l0,0.059H65.681z"/>
	</g>
	<rect id="area_4_" x="51.791" style="opacity:0;fill:#CCCCCC;" width="23.909" height="28.79"/>
</g>
<g id="sprite_x5F_dove">
	<g id="graphics_2_">
		<path style="fill-rule:evenodd;clip-rule:evenodd;fill:#FFFFFF;" d="M15.61,13.223c-5.736-1.31-9.555-3.388-13.592-8.295
			C0.19,11.106,2.581,16.257,12.212,18.57c-3.65,0.722-6.993,0.112-10.244-0.899c1.066,2.848,2.132,5.697,3.198,8.545
			c1.316-1.332,2.632-2.665,3.948-3.997c8.871,0.65,15.185-1.296,14.991-9.844c0.949-0.166,1.899-0.333,2.848-0.5
			c-0.95-1.283-3.048-1.965-4.048-3.398c-1.139-1.886-5.648-1.179-5.697,1.149C17.114,11.41,17.009,13.34,15.61,13.223L15.61,13.223
			z M9.714,1.98c4.627,2.585,6.15,6.093,5.847,10.144c-2.754-0.252-6.674-2.096-7.845-3.448C9.131,7.06,9.397,4.395,9.714,1.98
			L9.714,1.98z M21.532,9.775c0.428,0,0.774,0.347,0.774,0.775c0,0.428-0.346,0.774-0.774,0.774c-0.428,0-0.775-0.347-0.775-0.774
			C20.757,10.122,21.104,9.775,21.532,9.775z"/>
	</g>
	<rect id="area_1_" style="opacity:0;fill:#CCCCCC;" width="27.791" height="28.79"/>
</g>
</svg>
